<!-- icon666.com - MILLIONS OF FREE VECTOR ICONS --><svg xmlns="http://www.w3.org/2000/svg" xmlns:xlink="http://www.w3.org/1999/xlink" version="1.1" id="Layer_1" x="0px" y="0px" viewBox="0 0 512 512" style="enable-background:new 0 0 512 512;" xml:space="preserve"><g><path d="M497,120V60c0-33.084-26.916-60-60-60H75C41.916,0,15,26.916,15,60v392c0,33.084,26.916,60,60,60h362 c33.084,0,60-26.916,60-60v-60h-90V120H497z M467,60v30h-60V60c0-16.542,13.458-30,30-30S467,43.458,467,60z M45,452V60 c0-16.542,13.458-30,30-30h310.072C379.949,38.833,377,49.075,377,60v392c0,10.925,2.949,21.167,8.072,30H75 C58.458,482,45,468.542,45,452z M467,422v30c0,16.542-13.458,30-30,30s-30-13.458-30-30v-30H467z" fill="#000000" style="fill: rgb(82, 72, 35);"></path><path d="M279.5,75h-137v60H90v182h242V135h-52.5V75z M172.5,105h77v30h-77V105z M120,287v-32h182v32H120z M302,225H120v-60h182V225 z" fill="#000000" style="fill: rgb(82, 72, 35);"></path><rect x="90" y="347" width="242" height="30" fill="#000000" style="fill: rgb(82, 72, 35);"></rect><rect x="90" y="407" width="242" height="30" fill="#000000" style="fill: rgb(82, 72, 35);"></rect></g></svg>