<?xml version="1.0"?>
<svg width="300" height="276" xmlns="http://www.w3.org/2000/svg" xmlns:svg="http://www.w3.org/2000/svg" preserveAspectRatio="xMidYMid meet" version="1.0">
 <g class="layer">
  <title>Layer 1</title>
  <g fill="#000000" id="svg_1" transform="matrix(0.1 0 0 -0.1 0 0)">
   <path d="m1763,-10c-12,-5 -28,-18 -35,-30c-11,-17 -23,-20 -74,-20c-131,0 -254,-65 -295,-154c-27,-59 -25,-141 5,-207c14,-31 27,-85 31,-127c3,-40 13,-91 20,-113c24,-66 74,-130 115,-146c36,-15 38,-17 44,-75c9,-73 1,-83 -68,-98c-51,-10 -55,-9 -137,30c-46,22 -106,43 -134,46c-27,3 -72,17 -99,30c-30,14 -58,21 -75,18c-62,-13 -264,98 -341,187c-48,55 -50,60 -50,118c0,52 5,67 30,102c52,72 49,148 -6,184c-25,16 -34,68 -14,80c28,17 -3,75 -40,75c-37,0 -52,-28 -45,-84l7,-52l-41,-19c-47,-21 -117,-92 -126,-128c-17,-67 36,-292 96,-407l39,-77l-21,-48c-20,-46 -21,-83 -4,-127c6,-14 2,-18 -19,-18c-36,0 -78,-19 -155,-69c-115,-74 -196,-50 -241,72c-18,50 -50,29 -50,-34c0,-61 51,-116 122,-134c23,-6 28,-13 28,-39c0,-43 -206,-757 -221,-766c-17,-11 6,-71 40,-104c96,-92 347,-89 438,6c39,41 52,84 30,101c-12,9 -152,480 -225,758c-10,36 -9,37 27,48c21,6 68,27 105,47c81,43 102,40 147,-16c40,-50 65,-51 110,-4c57,60 67,60 177,6c92,-44 97,-49 96,-77c-2,-48 -205,-749 -221,-762c-13,-10 -12,-17 5,-56c34,-76 121,-118 247,-119c78,0 118,8 177,38c51,26 73,52 88,103c7,24 6,31 -5,31c-16,0 -14,-6 -140,438c-48,166 -88,315 -90,331c-3,26 -1,30 33,36c20,4 52,16 71,28l34,20l20,-24c47,-57 71,-130 73,-219c1,-58 8,-101 22,-137c11,-28 17,-63 15,-76c-3,-15 9,-57 32,-108c28,-63 35,-91 30,-114c-4,-16 -7,-45 -6,-64c0,-19 -5,-43 -10,-53c-5,-10 -7,-18 -5,-18c3,0 12,14 21,30c9,17 22,30 30,30c19,0 20,6 -14,-109c-25,-85 -67,-275 -100,-456l-9,-50l-1,49c-2,82 -15,42 -26,-77c-8,-90 -13,-112 -26,-115c-14,-3 -16,11 -11,118c3,66 2,120 -1,120c-3,0 -13,-54 -23,-120c-10,-66 -22,-120 -26,-120c-5,0 -9,28 -9,63c-1,34 -3,54 -6,44c-2,-9 -9,-15 -14,-11c-6,3 -9,-11 -8,-33c1,-21 -1,-46 -5,-55c-8,-17 12,-18 331,-18c270,0 343,3 358,14c11,7 47,30 80,50l60,37l-39,-33c-22,-18 -49,-41 -60,-50c-20,-17 -18,-17 64,-18c47,0 115,-3 153,-7l67,-6l0,99c0,153 -43,395 -101,573c-18,53 -19,67 -8,87c9,19 10,32 1,61c-10,34 -9,38 15,60c20,19 24,30 19,54c-3,19 0,38 9,52c8,12 20,46 28,75l13,54l39,-94c21,-51 62,-142 91,-203c29,-60 64,-146 79,-190c14,-44 82,-189 150,-322c69,-132 127,-259 131,-281c6,-38 8,-40 51,-46c25,-3 65,-6 89,-6c40,0 45,3 94,65c46,57 50,68 45,98c-5,23 -3,37 6,42c8,6 10,4 4,-4c-4,-7 -2,-23 5,-36c11,-21 8,-30 -39,-94c-28,-39 -51,-73 -51,-76c0,-3 15,-5 33,-5c30,0 34,4 55,59c19,49 27,60 52,65c65,12 46,108 -22,114c-47,4 -72,-20 -64,-62c5,-26 -1,-41 -36,-89c-40,-54 -43,-56 -60,-40c-10,9 -41,86 -68,172c-69,213 -145,420 -192,521c-35,73 -108,285 -108,311c0,5 9,18 20,29c16,16 19,32 18,97c-2,85 -17,113 -63,113c-29,0 -28,-1 -44,99c-14,91 -52,178 -94,219c-18,17 -68,44 -112,61c-44,17 -103,46 -132,65c-91,62 -114,115 -115,261l0,95l40,44c26,28 43,58 48,82c4,21 13,44 20,52c21,21 37,93 31,144c-5,43 -3,50 24,77c53,53 35,146 -41,215c-55,50 -147,70 -207,46zm-168,-99c-17,-10 -43,-33 -58,-50c-30,-37 -34,-34 -12,9c15,30 57,59 85,60c8,0 1,-8 -15,-19zm-103,-33c-11,-18 -22,-40 -25,-48c-5,-13 -6,-13 -6,0c-1,16 35,80 45,80c3,0 -3,-15 -14,-32zm188,15c-8,-3 -35,-14 -60,-25c-26,-11 -39,-13 -32,-6c15,15 69,36 92,36c13,0 13,0 0,-5zm-253,-65c-6,-24 -13,-36 -15,-27c-3,15 14,69 22,69c2,0 -1,-19 -7,-42zm282,38c-10,-10 -132,-55 -123,-46c6,6 33,19 60,30c47,18 72,25 63,16zm21,-43c-69,-23 -100,-31 -100,-27c0,9 65,33 90,33c14,0 18,-3 10,-6zm-1103,-25c-3,-8 -6,-5 -6,6c-1,11 2,17 5,13c3,-3 4,-12 1,-19zm1168,2c-3,-5 -22,-14 -43,-20c-38,-10 -79,-14 -71,-5c4,3 88,28 117,34c2,1 1,-3 -3,-9zm-1133,-51c22,-12 20,-34 -13,-105c-19,-42 -19,-42 -84,-49c-74,-8 -95,1 -95,44c0,32 26,58 90,95c49,28 71,31 102,15zm946,-33c15,-8 39,-27 54,-43l27,-28l-92,-2c-51,-1 -114,-8 -142,-17c-27,-8 -51,-13 -53,-11c-12,12 24,79 52,96c37,23 115,25 154,5zm251,-12c9,-8 -65,-2 -84,6c-13,6 -2,7 30,3c28,-3 52,-7 54,-9zm1,-54l25,-8l-25,-1c-14,0 -32,4 -40,9c-13,9 -13,10 0,9c8,-1 26,-5 40,-9zm-273,-46c-3,-3 -12,-4 -19,-1c-8,3 -5,6 6,6c11,1 17,-2 13,-5zm-110,-20c-33,-8 -63,-16 -68,-20c-5,-3 -9,-1 -9,5c0,10 68,29 110,29c14,0 -1,-6 -33,-14zm-2,-44c-16,-4 -39,-8 -50,-8l-20,-1l20,9c11,5 34,8 50,8l30,0l-30,-8zm-5,-44c-25,-7 -49,-11 -54,-8c-15,8 25,21 64,20c35,0 35,0 -10,-12zm250,-52c17,-17 -44,-127 -97,-174c-56,-49 -85,-51 -126,-7c-35,37 -80,129 -75,153c2,9 19,22 38,28c43,15 245,15 260,0zm168,-13c-16,-26 -38,-35 -38,-16c0,8 7,15 15,15c9,0 18,7 22,15c3,9 7,14 10,11c2,-2 -1,-13 -9,-25zm-1189,-293c14,-37 5,-36 -14,2c-9,17 -18,61 -20,98l-5,67l14,-70c8,-38 19,-82 25,-97zm-103,2c-7,-117 -5,-134 13,-175l20,-45l-25,0c-14,0 -24,6 -24,14c0,7 -7,27 -15,42c-20,39 -19,70 5,123c13,28 20,65 20,107c0,35 3,64 6,64c4,0 4,-58 0,-130zm304,57c58,-30 111,-56 118,-58c8,-3 12,-15 10,-27c-3,-22 -4,-22 -83,16c-46,23 -97,57 -120,81c-21,22 -37,41 -35,41c3,0 52,-24 110,-53zm305,-167c25,-49 113,-138 187,-188c26,-18 85,-51 131,-73c73,-35 99,-41 212,-54c165,-20 241,-41 396,-109c68,-30 149,-60 179,-67c69,-14 93,-33 30,-23c-61,9 -117,28 -230,79c-159,71 -217,86 -401,104c-96,10 -113,15 -216,67c-86,42 -130,72 -187,125c-40,38 -77,69 -80,69c-3,0 -6,-14 -6,-30c0,-17 -7,-45 -16,-61c-12,-25 -18,-28 -29,-19c-12,10 -12,17 2,44c23,44 21,121 -6,176c-28,58 2,22 34,-40zm152,24c39,-19 85,-45 101,-59c32,-27 74,-45 100,-45c10,1 2,9 -19,20c-19,10 -41,25 -48,33c-10,13 -5,16 30,22c43,7 79,35 79,60c0,27 45,-11 71,-60c13,-25 27,-45 30,-45c3,0 18,17 32,37c34,48 34,42 -3,-47c-16,-40 -30,-74 -30,-76c0,-2 16,4 35,11c27,12 67,14 201,8c197,-7 229,-19 282,-97c37,-56 42,-78 10,-49c-71,64 -145,57 -228,-23l-35,-33l-80,14c-44,8 -102,15 -130,15c-57,0 -81,11 -70,31c6,9 3,11 -8,6c-10,-3 -17,-2 -17,3c0,6 -5,10 -11,10c-6,0 -8,-8 -4,-19c5,-18 3,-19 -24,-11c-79,22 -251,126 -251,151c0,6 9,13 20,16c11,3 20,12 20,19c0,22 -87,72 -135,80c-28,4 -45,12 -48,22c-3,10 -8,26 -12,36c-8,17 -5,18 31,12c21,-4 71,-23 111,-42zm-230,-88c-4,-40 -11,-55 -36,-78c-42,-37 -59,-36 -27,2c30,36 46,87 47,155l1,50l10,-40c5,-22 7,-62 5,-89zm-81,52c-20,-68 -72,-158 -91,-158c-21,0 -19,14 6,36c28,26 65,90 80,142c7,23 14,40 17,38c2,-3 -3,-28 -12,-58zm-139,-44c77,-29 80,-36 33,-79c-21,-19 -21,-19 -79,13c-32,18 -80,35 -105,38c-35,5 -46,10 -41,21c3,8 8,32 11,53l6,39l52,-29c28,-15 83,-40 123,-56zm-400,-50c-3,-3 -12,-4 -19,-1c-8,3 -5,6 6,6c11,1 17,-2 13,-5zm995,-221c14,-14 32,-39 39,-55c10,-25 9,-33 -8,-56c-40,-54 -167,-101 -221,-81c-62,23 -67,127 -8,183c17,17 40,36 51,42c20,11 20,12 -2,36c-13,13 -23,27 -23,30c0,11 144,-72 172,-99zm-1252,-373l0,-350l-100,0c-55,0 -100,3 -100,8c0,10 194,692 198,692c1,0 2,-157 2,-350zm950,-342c0,-5 -45,-8 -100,-8l-100,0l1,353l0,352l100,-345c54,-190 99,-348 99,-352zm-725,15c5,-23 4,-23 -95,-23l-100,0l1,348l0,347l94,-325c52,-179 96,-335 100,-347zm1413,645c42,-13 92,-55 92,-78c0,-43 -128,-98 -197,-85c-79,14 -111,100 -57,150c37,34 80,38 162,13zm-918,-328l0,-340l-101,0c-91,0 -100,2 -95,18c3,9 46,162 97,340c51,177 94,322 96,322c1,0 3,-153 3,-340zm1371,143c24,-4 39,-11 39,-20c0,-9 -8,-12 -27,-7c-41,9 -144,58 -173,82c-17,14 -1,9 48,-15c40,-19 91,-37 113,-40zm-46,-74c44,-21 71,-39 61,-39c-30,0 -121,50 -168,93c-27,24 -30,29 -8,11c19,-15 71,-44 115,-65zm-745,11c-29,-40 -99,-80 -141,-80c-42,0 -103,31 -108,55c-3,15 2,14 28,-8c46,-38 91,-44 146,-17c24,12 54,35 66,51c11,16 23,29 25,29c3,0 -4,-13 -16,-30zm263,-52c55,-29 160,-32 201,-5c28,19 47,18 24,0c-23,-18 -80,-33 -123,-33c-52,0 -149,47 -190,92l-30,32l38,-32c21,-17 57,-42 80,-54zm-225,-10c-27,-41 -96,-86 -142,-93c-47,-7 -106,1 -106,15c0,5 16,4 36,-2c59,-16 129,6 178,57c47,49 55,54 34,23zm222,-74c38,-19 125,-24 175,-11c25,7 28,6 17,-5c-8,-8 -38,-13 -85,-13c-84,1 -132,22 -187,82l-35,38l40,-36c22,-20 56,-45 75,-55zm-245,-54c-38,-4 -88,-13 -109,-19c-22,-6 -42,-9 -44,-6c-4,3 31,14 93,28c11,3 45,5 75,4c54,0 53,0 -15,-7zm10,-52c-44,-5 -106,-15 -138,-22c-34,-8 -54,-9 -49,-4c18,18 115,36 192,36l75,-1l-80,-9zm-85,-61c0,-1 -16,-41 -36,-87c-20,-47 -58,-150 -85,-230c-26,-80 -49,-139 -49,-131c0,35 55,254 81,320c31,76 64,131 80,131c5,0 9,-1 9,-3zm-662,-144c-16,-2 -40,-2 -55,0c-16,2 -3,4 27,4c30,0 43,-2 28,-4zm-765,-10c-7,-2 -19,-2 -25,0c-7,3 -2,5 12,5c14,0 19,-2 13,-5zm1556,-115c-63,-113 -163,-324 -199,-420c-19,-49 -37,-88 -42,-88c-11,0 -11,-1 22,104c36,112 114,269 194,389c32,48 60,87 62,87c2,0 -15,-33 -37,-72zm-200,-109c-23,-60 -99,-349 -99,-379c0,-13 -7,-20 -20,-20c-24,0 -24,-5 0,88c24,95 57,193 100,295c36,87 53,100 19,16zm299,-226c-18,-21 -55,-68 -82,-106c-48,-68 -82,-93 -49,-36c18,31 150,179 160,179c3,0 -10,-17 -29,-37zm44,-73c-94,-94 -123,-118 -105,-86c8,13 194,186 201,186c2,0 -41,-45 -96,-100z" fill="#a5975a" id="svg_2"/>
   <path d="m1490,-599l-35,-6l23,-22c12,-13 26,-23 31,-23c18,0 54,37 47,48c-8,13 -11,13 -66,3z" fill="#a5975a" id="svg_3"/>
   <path d="m1503,-672c-38,-18 -26,-28 25,-21c48,6 59,10 51,17c-11,12 -57,14 -76,4z" fill="#a5975a" id="svg_4"/>
   <path d="m1269,-2091c-16,-34 -29,-63 -27,-65c2,-2 18,26 36,61c17,36 30,65 27,65c-3,0 -19,-27 -36,-61z" fill="#a5975a" id="svg_5"/>
   <path d="m1111,-2556c0,-11 3,-14 6,-6c3,7 2,16 -1,19c-3,4 -6,-2 -5,-13z" fill="#a5975a" id="svg_6"/>
  </g>
 </g>
</svg>