<!-- icon666.com - MILLIONS OF FREE VECTOR ICONS --><svg viewBox="0 -24 512.00221 512" xmlns="http://www.w3.org/2000/svg"><path d="m499.808594 0h-487.617188c-6.734375 0-12.191406 5.460938-12.191406 12.191406v438.859375c0 6.734375 5.457031 12.191407 12.191406 12.191407h487.621094c6.730469 0 12.191406-5.457032 12.191406-12.191407v-438.859375c-.003906-6.730468-5.460937-12.191406-12.195312-12.191406zm-12.1875 109.714844c0 20.199218-16.375 36.574218-36.570313 36.574218-20.199219 0-36.574219-16.375-36.574219-36.574218v-12.191406h73.144532zm-97.523438 0c0 20.199218-16.375 36.574218-36.574218 36.574218-20.195313 0-36.570313-16.375-36.570313-36.574218v-12.191406h73.144531zm-97.527344 0c0 20.199218-16.371093 36.574218-36.570312 36.574218-20.195312 0-36.570312-16.375-36.570312-36.574218v-12.191406h73.140624zm-97.523437 0c0 20.199218-16.371094 36.574218-36.570313 36.574218-20.199218 0-36.570312-16.375-36.570312-36.574218v-12.191406h73.140625zm-97.523437 0c0 20.199218-16.371094 36.574218-36.570313 36.574218s-36.570313-16.375-36.570313-36.574218v-12.191406h73.140626zm-73.144532-85.332032h463.242188v48.761719h-463.242188zm97.523438 414.476563v-146.285156h97.527344v146.285156zm121.90625 0v-158.476563c0-6.734374-5.457032-12.191406-12.191406-12.191406h-121.902344c-6.734375 0-12.191406 5.457032-12.191406 12.191406v158.476563h-73.140626v-280.683594c26.320313 20.269531 64.089844 15.363281 84.359376-10.957031.332031-.429688.65625-.859375.972656-1.296875 19.695312 26.929687 57.492187 32.792969 84.421875 13.097656 5.015625-3.664062 9.433593-8.082031 13.101562-13.097656 19.695313 26.929687 57.496094 32.792969 84.425781 13.097656 5.011719-3.664062 9.433594-8.082031 13.097657-13.097656 19.695312 26.929687 57.496093 32.792969 84.425781 13.097656 5.011719-3.664062 9.433594-8.082031 13.101562-13.097656 19.550782 26.859375 57.175782 32.777344 84.035157 13.226563.4375-.320313.871093-.644532 1.296875-.972657v280.683594zm0 0" fill="#000000" style="fill: rgb(99, 90, 51);"></path><path d="m402.285156 341.335938h-73.140625c-6.734375 0-12.191406 5.457031-12.191406 12.191406s5.457031 12.191406 12.191406 12.191406h73.140625c6.734375 0 12.191406-5.457031 12.191406-12.191406s-5.457031-12.191406-12.191406-12.191406zm0 0" fill="#000000" style="fill: rgb(99, 90, 51);"></path><path d="m402.285156 268.191406h-73.140625c-6.734375 0-12.191406 5.460938-12.191406 12.191406 0 6.734376 5.457031 12.191407 12.191406 12.191407h73.140625c6.734375 0 12.191406-5.457031 12.191406-12.191407 0-6.730468-5.457031-12.191406-12.191406-12.191406zm0 0" fill="#000000" style="fill: rgb(99, 90, 51);"></path></svg>