<!-- icon666.com - MILLIONS OF FREE VECTOR ICONS --><svg xmlns="http://www.w3.org/2000/svg" id="Icons" viewBox="0 0 60 60"><path d="M56,4a3.965,3.965,0,0,0-2.043.579,3.96,3.96,0,0,0-6.531-2.615,3.933,3.933,0,0,0-.6-.791,3.978,3.978,0,0,0-6.252.792A3.962,3.962,0,0,0,38,1a4,4,0,0,0-4,4V7H27.91A5.993,5.993,0,0,0,16.09,7H1A1,1,0,0,0,1,9H6.184L.308,18.283A.989.989,0,0,0,0,19v4a4,4,0,0,0,4,4h8a4,4,0,0,0,4-4V19a.989.989,0,0,0-.308-.717L9.816,9H16.09A6,6,0,0,0,18,12.46V41H16a4,4,0,0,0-4,4v2H10a4,4,0,0,0-4,4v2H1a1,1,0,0,0,0,2H34v2a3,3,0,0,0,3,3H51a3,3,0,0,0,3-3V35.657a2.98,2.98,0,0,1,.879-2.122l3.07-3.07A6.955,6.955,0,0,0,60,25.515V8A4,4,0,0,0,56,4ZM8,9.87,13.146,18H2.854ZM14,23a2,2,0,0,1-2,2H4a2,2,0,0,1-2-2V20H14ZM56,6a2,2,0,0,1,2,2v2a2,2,0,0,1-4,0V8A2,2,0,0,1,56,6ZM50,3a2,2,0,0,1,2,2v5a2,2,0,0,1-4,0V5A2,2,0,0,1,50,3ZM42,4a2,2,0,0,1,2-2,2.037,2.037,0,0,1,2,2v8a2.058,2.058,0,0,1-.035.325A4.006,4.006,0,0,0,43,11H42V4ZM36,5a2,2,0,0,1,4,0v6H36Zm-2,6.08A7.006,7.006,0,0,0,28,18v8.343a4.969,4.969,0,0,0,1.465,3.536l3.656,3.656A2.984,2.984,0,0,1,34,35.657V47H32V45a4,4,0,0,0-4-4H26V12.46A6,6,0,0,0,27.91,9H34ZM22,4a4,4,0,1,1-4,4A4,4,0,0,1,22,4Zm-2,9.65a5.889,5.889,0,0,0,4,0V41H20ZM14,45a2,2,0,0,1,2-2H28a2,2,0,0,1,2,2v2H14ZM8,53V51a2,2,0,0,1,2-2H34v4ZM56.535,29.051l-3.07,3.07A4.969,4.969,0,0,0,52,35.657V57a1,1,0,0,1-1,1H37a1,1,0,0,1-1-1V35.657a4.969,4.969,0,0,0-1.465-3.536l-3.656-3.656A2.98,2.98,0,0,1,30,26.343V18a5.006,5.006,0,0,1,5-5h8a2.006,2.006,0,0,1,1.96,1.6A2.055,2.055,0,0,1,45,15a2,2,0,0,1-2,2H38a3,3,0,0,0-3,3v3a1,1,0,0,0,2,0V20a1,1,0,0,1,1-1h5a4,4,0,0,0,4-4c0-.118-.025-.231-.035-.348a3.905,3.905,0,0,0,.792-1.343A3.963,3.963,0,0,0,53,12.618a3.92,3.92,0,0,0,5,.826V25.515A4.971,4.971,0,0,1,56.535,29.051Z" fill="#000000" style="fill: rgb(99, 90, 51);"></path></svg>