<?xml version="1.0" standalone="no"?>
<!DOCTYPE svg PUBLIC "-//W3C//DTD SVG 20010904//EN"
 "http://www.w3.org/TR/2001/REC-SVG-20010904/DTD/svg10.dtd">
<svg version="1.0" xmlns="http://www.w3.org/2000/svg"
 width="300.000000pt" height="276.000000pt" viewBox="0 0 300.000000 276.000000"
 preserveAspectRatio="xMidYMid meet">

<g transform="translate(0.000000,276.000000) scale(0.100000,-0.100000)"
fill="#000000" stroke="none">
<path d="M1763 2750 c-12 -5 -28 -18 -35 -30 -11 -17 -23 -20 -74 -20 -131 0
-254 -65 -295 -154 -27 -59 -25 -141 5 -207 14 -31 27 -85 31 -127 3 -40 13
-91 20 -113 24 -66 74 -130 115 -146 36 -15 38 -17 44 -75 9 -73 1 -83 -68
-98 -51 -10 -55 -9 -137 30 -46 22 -106 43 -134 46 -27 3 -72 17 -99 30 -30
14 -58 21 -75 18 -62 -13 -264 98 -341 187 -48 55 -50 60 -50 118 0 52 5 67
30 102 52 72 49 148 -6 184 -25 16 -34 68 -14 80 28 17 -3 75 -40 75 -37 0
-52 -28 -45 -84 l7 -52 -41 -19 c-47 -21 -117 -92 -126 -128 -17 -67 36 -292
96 -407 l39 -77 -21 -48 c-20 -46 -21 -83 -4 -127 6 -14 2 -18 -19 -18 -36 0
-78 -19 -155 -69 -115 -74 -196 -50 -241 72 -18 50 -50 29 -50 -34 0 -61 51
-116 122 -134 23 -6 28 -13 28 -39 0 -43 -206 -757 -221 -766 -17 -11 6 -71
40 -104 96 -92 347 -89 438 6 39 41 52 84 30 101 -12 9 -152 480 -225 758 -10
36 -9 37 27 48 21 6 68 27 105 47 81 43 102 40 147 -16 40 -50 65 -51 110 -4
57 60 67 60 177 6 92 -44 97 -49 96 -77 -2 -48 -205 -749 -221 -762 -13 -10
-12 -17 5 -56 34 -76 121 -118 247 -119 78 0 118 8 177 38 51 26 73 52 88 103
7 24 6 31 -5 31 -16 0 -14 -6 -140 438 -48 166 -88 315 -90 331 -3 26 -1 30
33 36 20 4 52 16 71 28 l34 20 20 -24 c47 -57 71 -130 73 -219 1 -58 8 -101
22 -137 11 -28 17 -63 15 -76 -3 -15 9 -57 32 -108 28 -63 35 -91 30 -114 -4
-16 -7 -45 -6 -64 0 -19 -5 -43 -10 -53 -5 -10 -7 -18 -5 -18 3 0 12 14 21 30
9 17 22 30 30 30 19 0 20 6 -14 -109 -25 -85 -67 -275 -100 -456 l-9 -50 -1
49 c-2 82 -15 42 -26 -77 -8 -90 -13 -112 -26 -115 -14 -3 -16 11 -11 118 3
66 2 120 -1 120 -3 0 -13 -54 -23 -120 -10 -66 -22 -120 -26 -120 -5 0 -9 28
-9 63 -1 34 -3 54 -6 44 -2 -9 -9 -15 -14 -11 -6 3 -9 -11 -8 -33 1 -21 -1
-46 -5 -55 -8 -17 12 -18 331 -18 270 0 343 3 358 14 11 7 47 30 80 50 l60 37
-39 -33 c-22 -18 -49 -41 -60 -50 -20 -17 -18 -17 64 -18 47 0 115 -3 153 -7
l67 -6 0 99 c0 153 -43 395 -101 573 -18 53 -19 67 -8 87 9 19 10 32 1 61 -10
34 -9 38 15 60 20 19 24 30 19 54 -3 19 0 38 9 52 8 12 20 46 28 75 l13 54 39
-94 c21 -51 62 -142 91 -203 29 -60 64 -146 79 -190 14 -44 82 -189 150 -322
69 -132 127 -259 131 -281 6 -38 8 -40 51 -46 25 -3 65 -6 89 -6 40 0 45 3 94
65 46 57 50 68 45 98 -5 23 -3 37 6 42 8 6 10 4 4 -4 -4 -7 -2 -23 5 -36 11
-21 8 -30 -39 -94 -28 -39 -51 -73 -51 -76 0 -3 15 -5 33 -5 30 0 34 4 55 59
19 49 27 60 52 65 65 12 46 108 -22 114 -47 4 -72 -20 -64 -62 5 -26 -1 -41
-36 -89 -40 -54 -43 -56 -60 -40 -10 9 -41 86 -68 172 -69 213 -145 420 -192
521 -35 73 -108 285 -108 311 0 5 9 18 20 29 16 16 19 32 18 97 -2 85 -17 113
-63 113 -29 0 -28 -1 -44 99 -14 91 -52 178 -94 219 -18 17 -68 44 -112 61
-44 17 -103 46 -132 65 -91 62 -114 115 -115 261 l0 95 40 44 c26 28 43 58 48
82 4 21 13 44 20 52 21 21 37 93 31 144 -5 43 -3 50 24 77 53 53 35 146 -41
215 -55 50 -147 70 -207 46z m-168 -99 c-17 -10 -43 -33 -58 -50 -30 -37 -34
-34 -12 9 15 30 57 59 85 60 8 0 1 -8 -15 -19z m-103 -33 c-11 -18 -22 -40
-25 -48 -5 -13 -6 -13 -6 0 -1 16 35 80 45 80 3 0 -3 -15 -14 -32z m188 15
c-8 -3 -35 -14 -60 -25 -26 -11 -39 -13 -32 -6 15 15 69 36 92 36 13 0 13 0 0
-5z m-253 -65 c-6 -24 -13 -36 -15 -27 -3 15 14 69 22 69 2 0 -1 -19 -7 -42z
m282 38 c-10 -10 -132 -55 -123 -46 6 6 33 19 60 30 47 18 72 25 63 16z m21
-43 c-69 -23 -100 -31 -100 -27 0 9 65 33 90 33 14 0 18 -3 10 -6z m-1103 -25
c-3 -8 -6 -5 -6 6 -1 11 2 17 5 13 3 -3 4 -12 1 -19z m1168 2 c-3 -5 -22 -14
-43 -20 -38 -10 -79 -14 -71 -5 4 3 88 28 117 34 2 1 1 -3 -3 -9z m-1133 -51
c22 -12 20 -34 -13 -105 -19 -42 -19 -42 -84 -49 -74 -8 -95 1 -95 44 0 32 26
58 90 95 49 28 71 31 102 15z m946 -33 c15 -8 39 -27 54 -43 l27 -28 -92 -2
c-51 -1 -114 -8 -142 -17 -27 -8 -51 -13 -53 -11 -12 12 24 79 52 96 37 23
115 25 154 5z m251 -12 c9 -8 -65 -2 -84 6 -13 6 -2 7 30 3 28 -3 52 -7 54 -9z
m1 -54 l25 -8 -25 -1 c-14 0 -32 4 -40 9 -13 9 -13 10 0 9 8 -1 26 -5 40 -9z
m-273 -46 c-3 -3 -12 -4 -19 -1 -8 3 -5 6 6 6 11 1 17 -2 13 -5z m-110 -20
c-33 -8 -63 -16 -68 -20 -5 -3 -9 -1 -9 5 0 10 68 29 110 29 14 0 -1 -6 -33
-14z m-2 -44 c-16 -4 -39 -8 -50 -8 l-20 -1 20 9 c11 5 34 8 50 8 l30 0 -30
-8z m-5 -44 c-25 -7 -49 -11 -54 -8 -15 8 25 21 64 20 35 0 35 0 -10 -12z
m250 -52 c17 -17 -44 -127 -97 -174 -56 -49 -85 -51 -126 -7 -35 37 -80 129
-75 153 2 9 19 22 38 28 43 15 245 15 260 0z m168 -13 c-16 -26 -38 -35 -38
-16 0 8 7 15 15 15 9 0 18 7 22 15 3 9 7 14 10 11 2 -2 -1 -13 -9 -25z m-1189
-293 c14 -37 5 -36 -14 2 -9 17 -18 61 -20 98 l-5 67 14 -70 c8 -38 19 -82 25
-97z m-103 2 c-7 -117 -5 -134 13 -175 l20 -45 -25 0 c-14 0 -24 6 -24 14 0 7
-7 27 -15 42 -20 39 -19 70 5 123 13 28 20 65 20 107 0 35 3 64 6 64 4 0 4
-58 0 -130z m304 57 c58 -30 111 -56 118 -58 8 -3 12 -15 10 -27 -3 -22 -4
-22 -83 16 -46 23 -97 57 -120 81 -21 22 -37 41 -35 41 3 0 52 -24 110 -53z
m305 -167 c25 -49 113 -138 187 -188 26 -18 85 -51 131 -73 73 -35 99 -41 212
-54 165 -20 241 -41 396 -109 68 -30 149 -60 179 -67 69 -14 93 -33 30 -23
-61 9 -117 28 -230 79 -159 71 -217 86 -401 104 -96 10 -113 15 -216 67 -86
42 -130 72 -187 125 -40 38 -77 69 -80 69 -3 0 -6 -14 -6 -30 0 -17 -7 -45
-16 -61 -12 -25 -18 -28 -29 -19 -12 10 -12 17 2 44 23 44 21 121 -6 176 -28
58 2 22 34 -40z m152 24 c39 -19 85 -45 101 -59 32 -27 74 -45 100 -45 10 1 2
9 -19 20 -19 10 -41 25 -48 33 -10 13 -5 16 30 22 43 7 79 35 79 60 0 27 45
-11 71 -60 13 -25 27 -45 30 -45 3 0 18 17 32 37 34 48 34 42 -3 -47 -16 -40
-30 -74 -30 -76 0 -2 16 4 35 11 27 12 67 14 201 8 197 -7 229 -19 282 -97 37
-56 42 -78 10 -49 -71 64 -145 57 -228 -23 l-35 -33 -80 14 c-44 8 -102 15
-130 15 -57 0 -81 11 -70 31 6 9 3 11 -8 6 -10 -3 -17 -2 -17 3 0 6 -5 10 -11
10 -6 0 -8 -8 -4 -19 5 -18 3 -19 -24 -11 -79 22 -251 126 -251 151 0 6 9 13
20 16 11 3 20 12 20 19 0 22 -87 72 -135 80 -28 4 -45 12 -48 22 -3 10 -8 26
-12 36 -8 17 -5 18 31 12 21 -4 71 -23 111 -42z m-230 -88 c-4 -40 -11 -55
-36 -78 -42 -37 -59 -36 -27 2 30 36 46 87 47 155 l1 50 10 -40 c5 -22 7 -62
5 -89z m-81 52 c-20 -68 -72 -158 -91 -158 -21 0 -19 14 6 36 28 26 65 90 80
142 7 23 14 40 17 38 2 -3 -3 -28 -12 -58z m-139 -44 c77 -29 80 -36 33 -79
-21 -19 -21 -19 -79 13 -32 18 -80 35 -105 38 -35 5 -46 10 -41 21 3 8 8 32
11 53 l6 39 52 -29 c28 -15 83 -40 123 -56z m-400 -50 c-3 -3 -12 -4 -19 -1
-8 3 -5 6 6 6 11 1 17 -2 13 -5z m995 -221 c14 -14 32 -39 39 -55 10 -25 9
-33 -8 -56 -40 -54 -167 -101 -221 -81 -62 23 -67 127 -8 183 17 17 40 36 51
42 20 11 20 12 -2 36 -13 13 -23 27 -23 30 0 11 144 -72 172 -99z m-1252 -373
l0 -350 -100 0 c-55 0 -100 3 -100 8 0 10 194 692 198 692 1 0 2 -157 2 -350z
m950 -342 c0 -5 -45 -8 -100 -8 l-100 0 1 353 0 352 100 -345 c54 -190 99
-348 99 -352z m-725 15 c5 -23 4 -23 -95 -23 l-100 0 1 348 0 347 94 -325 c52
-179 96 -335 100 -347z m1413 645 c42 -13 92 -55 92 -78 0 -43 -128 -98 -197
-85 -79 14 -111 100 -57 150 37 34 80 38 162 13z m-918 -328 l0 -340 -101 0
c-91 0 -100 2 -95 18 3 9 46 162 97 340 51 177 94 322 96 322 1 0 3 -153 3
-340z m1371 143 c24 -4 39 -11 39 -20 0 -9 -8 -12 -27 -7 -41 9 -144 58 -173
82 -17 14 -1 9 48 -15 40 -19 91 -37 113 -40z m-46 -74 c44 -21 71 -39 61 -39
-30 0 -121 50 -168 93 -27 24 -30 29 -8 11 19 -15 71 -44 115 -65z m-745 11
c-29 -40 -99 -80 -141 -80 -42 0 -103 31 -108 55 -3 15 2 14 28 -8 46 -38 91
-44 146 -17 24 12 54 35 66 51 11 16 23 29 25 29 3 0 -4 -13 -16 -30z m263
-52 c55 -29 160 -32 201 -5 28 19 47 18 24 0 -23 -18 -80 -33 -123 -33 -52 0
-149 47 -190 92 l-30 32 38 -32 c21 -17 57 -42 80 -54z m-225 -10 c-27 -41
-96 -86 -142 -93 -47 -7 -106 1 -106 15 0 5 16 4 36 -2 59 -16 129 6 178 57
47 49 55 54 34 23z m222 -74 c38 -19 125 -24 175 -11 25 7 28 6 17 -5 -8 -8
-38 -13 -85 -13 -84 1 -132 22 -187 82 l-35 38 40 -36 c22 -20 56 -45 75 -55z
m-245 -54 c-38 -4 -88 -13 -109 -19 -22 -6 -42 -9 -44 -6 -4 3 31 14 93 28 11
3 45 5 75 4 54 0 53 0 -15 -7z m10 -52 c-44 -5 -106 -15 -138 -22 -34 -8 -54
-9 -49 -4 18 18 115 36 192 36 l75 -1 -80 -9z m-85 -61 c0 -1 -16 -41 -36 -87
-20 -47 -58 -150 -85 -230 -26 -80 -49 -139 -49 -131 0 35 55 254 81 320 31
76 64 131 80 131 5 0 9 -1 9 -3z m-662 -144 c-16 -2 -40 -2 -55 0 -16 2 -3 4
27 4 30 0 43 -2 28 -4z m-765 -10 c-7 -2 -19 -2 -25 0 -7 3 -2 5 12 5 14 0 19
-2 13 -5z m1556 -115 c-63 -113 -163 -324 -199 -420 -19 -49 -37 -88 -42 -88
-11 0 -11 -1 22 104 36 112 114 269 194 389 32 48 60 87 62 87 2 0 -15 -33
-37 -72z m-200 -109 c-23 -60 -99 -349 -99 -379 0 -13 -7 -20 -20 -20 -24 0
-24 -5 0 88 24 95 57 193 100 295 36 87 53 100 19 16z m299 -226 c-18 -21 -55
-68 -82 -106 -48 -68 -82 -93 -49 -36 18 31 150 179 160 179 3 0 -10 -17 -29
-37z m44 -73 c-94 -94 -123 -118 -105 -86 8 13 194 186 201 186 2 0 -41 -45
-96 -100z"/>
<path d="M1490 2161 l-35 -6 23 -22 c12 -13 26 -23 31 -23 18 0 54 37 47 48
-8 13 -11 13 -66 3z"/>
<path d="M1503 2088 c-38 -18 -26 -28 25 -21 48 6 59 10 51 17 -11 12 -57 14
-76 4z"/>
<path d="M1269 669 c-16 -34 -29 -63 -27 -65 2 -2 18 26 36 61 17 36 30 65 27
65 -3 0 -19 -27 -36 -61z"/>
<path d="M1111 204 c0 -11 3 -14 6 -6 3 7 2 16 -1 19 -3 4 -6 -2 -5 -13z"/>
</g>
</svg>
