<svg width="6448" height="6250" xmlns="http://www.w3.org/2000/svg" clip-rule="evenodd" version="1.1" xml:space="preserve">

 <g>
  <title>Layer 1</title>
  <g id="Capa_x0020_1">
   <metadata id="CorelCorpID_0Corel-Layer"/>
   <path id="svg_1" fill="#DCB677" d="m3823.03872,3065.33026l463.46,0l-2.89,1167.93c-12.43,100.01 -82,123.33 -143,127.76c-51.46,3.7 -96.84,-8.75 -96.82,27.57c1.04,11.48 18.04,25.42 60.49,24.11l400.94,0l376.87,0.26c52.96,-0.98 69.34,-7.58 71.65,-24.65c0.32,-34.7 -62.04,-25.14 -85.32,-25.97c-62.81,-2.25 -118.04,-5.29 -137.32,-125.1l0.14,-1171.88l574.34,1.45c209.53,-0.03 176.31,75.5 177.01,391.99l1.99,772.8c0.09,36.16 -8.78,61.26 -15.74,71.08c-43.15,60.97 -147.13,57.99 -194.32,58.34c-47.37,1.94 -49.42,51.69 7.31,51.69l852.46,0c45.37,2.4 40.67,-48.18 9.46,-49.28c-149.63,-2.24 -192.44,-32.77 -213.27,-96.3l0.01,-2260.24c17.87,-76.69 75.21,-104.27 152.36,-113.97c58.63,-1.68 80.81,-4.48 84.15,-24.31c-1.34,-23.46 -27.91,-27.05 -84.33,-27.39c-31.36,-0.19 -71.44,-0.37 -122.78,-0.12l-615.67,0.12c-90.37,-1.29 -106.23,0 -107.22,30.17c7.73,29.65 51.09,18.34 103.44,21.54c86.74,5.25 124.2,34.73 142.16,113.85l0,727.04c4.92,193.7 0,237.77 -177.5,237.55l-573.86,-0.88l0,-962.58c13.47,-57.92 41.76,-101.5 98.79,-114.99c44.4,-3.37 124.55,8.83 126.55,-26.66c-0.69,-25.05 -18.47,-26.43 -105.85,-25.05l-702.03,0c-60.54,0.27 -101.03,-1.9 -101.3,25.42c2.46,26.29 9.68,24.61 90.35,26.29c56.84,2.39 129.8,18.66 143.34,88.09l0,989.46l-461.84,0c-21.57,-135.32 -3.44,-384.24 -3.41,-531.42c0.08,-482.39 -36.98,-1105.44 97.08,-1506.47c319.39,-955.55 1963.8,-1217.17 2379.33,-237.4c209.89,494.56 -172.59,809.05 -496.7,822.83c-313.51,13.34 -620.26,-174.54 -640.69,-427.38c47.64,33.95 118.86,98.3 224.62,48.75c256.29,-120.07 -46.68,-503.57 -254.25,-180c-185.76,289.56 253.79,547.36 522.11,592.58c204.76,34.49 354.83,-3.39 502.18,-92.82c725.01,-439.97 3.72,-1425.72 -818.27,-1457.99c-885.6,-34.8 -1786.06,724.93 -1907.55,1613.01c-29.47,141.07 -82.02,1145.07 -64.88,1356.49l-434.28,-0.19c-74.4,8.17 -53,97.9 0,94.87l430.56,0c23.61,316.97 4.28,715.95 4.7,1038.34c0.41,305.21 18.4,696.01 -56.9,960.94c-145.02,510.39 -511.89,818.44 -1066.71,968.54c-820.29,221.92 -1856.16,-84.66 -2039.4,-888.3c-89.65,-393.19 90.04,-938.29 527.78,-1039.61c286.25,-66.25 478.11,8.31 666.54,188.15c403.77,385.38 84.02,498.3 44.05,545.1c531.73,56.93 336.36,-1009.06 -569.11,-864.4c-511.14,81.67 -805.85,496.95 -859.98,985.72c-35.6,321.55 85.64,737.02 358.2,931.09c475.67,347.48 937.9,407.52 1576.68,327.11c181.36,-22.83 331.53,-84.97 494.05,-149.16c407.69,-161.02 790.7,-463.18 1041.41,-819.94c482.29,-749.82 347.29,-1321.78 346.63,-2183.58zm-1083.87,-1946.05c14.72,-343.66 309.24,-153.82 299.94,-239.72c1.82,-23.08 -39.2,-25.09 -142.98,-25.09c-226.03,-4.53 -666.6,3.89 -790.99,0c-128.9,0 -123.66,14.08 -125.16,29.15c17.27,90.76 291.23,-158.95 299.03,400.67l1.75,1244.74c0,549.49 1.82,1100.2 -1.35,1649.6c-1.81,311.44 15.27,498.22 -84.67,750.89c-289.17,731.06 -1168.23,604.46 -1466.54,236.96c-28.55,-65.27 -71.69,-105.09 -110.96,-84.1c-42.52,48.87 22.46,85.8 68.77,126.59c40.88,36 81.49,70.82 123.45,101.9c666.41,493.45 1698.73,92.26 1892.3,-746.61c64.55,-279.82 36.97,-1362.49 35.22,-1720.31c-0.93,-189.74 -6.52,-687.42 -6.97,-1105.65l9.16,-619.02z" class="fil1"/>
  </g>
 </g>
</svg>