<!-- icon666.com - MILLIONS OF FREE VECTOR ICONS --><svg viewBox="0 0 32 32" xmlns="http://www.w3.org/2000/svg"><g id="Layer_2" data-name="Layer 2"><path d="m29 5h-26a1 1 0 0 0 0 2h26a1 1 0 0 0 0-2z" fill="#000000" style="fill: rgb(255, 255, 255);"></path><path d="m29 11.52h-26a1 1 0 0 0 0 2h26a1 1 0 0 0 0-2z" fill="#000000" style="fill: rgb(255, 255, 255);"></path><path d="m29 18.26h-26a1 1 0 0 0 0 2h26a1 1 0 0 0 0-2z" fill="#000000" style="fill: rgb(255, 255, 255);"></path><path d="m29 25h-26a1 1 0 0 0 0 2h26a1 1 0 0 0 0-2z" fill="#000000" style="fill: rgb(255, 255, 255);"></path></g></svg>