<svg width="12587" height="1244" xmlns="http://www.w3.org/2000/svg" clip-rule="evenodd" version="1.1" xml:space="preserve">

 <g>
  <title>Layer 1</title>
  <g id="Capa_x0020_1">
   <metadata id="CorelCorpID_0Corel-Layer"/>
   <path id="svg_1" fill-rule="nonzero" fill="#DCB677" d="m362.99,19.0198l0,910.91c0,49.87 -9.98,94.95 -29.9,135.29c-19.95,40.32 -46.9,74.55 -80.9,102.65c-33.99,28.1 -72.72,48.7 -116.24,61.85c-43.49,13.15 -88.81,17.46 -135.95,12.91l0,-12.21c38.07,-16.33 68.89,-40.56 92.46,-72.75c23.54,-32.17 40.56,-68.42 50.98,-108.76c10.42,-40.35 15.63,-81.35 15.63,-123.04l0,-906.83l203.92,0l0,-0.02zm-199.84,99.26l-4.07,0c-0.93,-23.57 -9.77,-43.73 -26.51,-60.5c-16.77,-16.77 -36.96,-25.16 -60.5,-25.16c0,0 -2.97,0 -8.84,0c-5.9,0 -8.83,0 -8.83,0l0,-13.6l108.76,0l0,99.26l-0.01,0zm195.77,0l-1.35,-99.26l108.76,0l0,13.6c0,0 -2.94,0 -8.84,0c-5.9,0 -8.83,0 -8.83,0c-23.57,0 -43.73,8.39 -60.5,25.16c-16.78,16.77 -25.61,36.93 -26.51,60.5l-2.73,0zm527.51,-99.26l0,910.91c0,49.87 -9.97,94.95 -29.89,135.29c-19.95,40.32 -46.91,74.55 -80.9,102.65c-33.99,28.1 -72.72,48.7 -116.24,61.85c-43.49,13.15 -88.81,17.46 -135.96,12.91l0,-12.21c38.08,-16.33 68.89,-40.56 92.47,-72.75c23.54,-32.17 40.55,-68.42 50.97,-108.76c10.42,-40.35 15.63,-81.35 15.63,-123.04l0,-906.83l203.92,0l0,-0.02zm-199.84,99.26l-4.07,0c-0.93,-23.57 -9.76,-43.73 -26.51,-60.5c-16.77,-16.77 -36.96,-25.16 -60.5,-25.16c0,0 -2.97,0 -8.83,0c-5.91,0 -8.84,0 -8.84,0l0,-13.6l108.76,0l0,99.26l-0.01,0zm195.77,0l-1.35,-99.26l108.76,0l0,13.6c0,0 -2.94,0 -8.83,0c-5.91,0 -8.84,0 -8.84,0c-23.57,0 -43.73,8.39 -60.5,25.16c-16.77,16.77 -25.61,36.93 -26.51,60.5l-2.73,0zm534.31,-118.27c18.16,0 40.56,0.9 67.3,2.72c26.75,1.8 54.39,4.29 82.94,7.46c28.54,3.17 53.46,6.35 74.79,9.53c21.3,3.17 36,6.56 44.18,10.18l-16.33,183.54l-13.6,0c0,-47.11 -17.42,-84.98 -52.32,-113.52c-34.9,-28.54 -81.34,-42.84 -139.37,-42.84c-52.56,0 -94.95,12.71 -127.12,38.08c-32.16,25.36 -49.17,56.18 -50.97,92.46c-0.9,27.19 7.7,50.73 25.81,70.68c18.13,19.95 41.25,38.52 69.34,55.74l259.69,168.6c41.69,23.54 73.17,54.36 94.46,92.43c21.33,38.07 30.61,82.49 27.89,133.25c-4.52,88.81 -38.52,157.91 -101.96,207.33c-63.47,49.39 -149.55,74.07 -258.33,74.07c-39.87,0 -78.63,-3.38 -116.25,-10.18c-37.58,-6.8 -70.89,-16.32 -99.92,-28.54c-28.99,-12.25 -52.12,-26.96 -69.34,-44.18c-7.24,-19.95 -10.42,-43.97 -9.49,-72.06c0.9,-28.1 5.21,-56.65 12.91,-85.67c7.7,-28.99 17.43,-53.02 29.23,-72.03l12.21,0c-3.62,46.22 4.77,89.05 25.16,128.47c20.4,39.41 50.29,70.68 89.74,93.81c39.41,23.12 86.31,34.2 140.71,33.31c59.82,-0.91 106.03,-16.09 138.68,-45.56c32.62,-29.45 48.95,-65.03 48.95,-106.72c0,-28.1 -8.39,-53.47 -25.16,-76.14c-16.78,-22.64 -44.18,-44.38 -82.25,-65.23l-237.94,-157.73c-48.02,-27.2 -82.94,-62.09 -104.68,-104.68c-21.75,-42.59 -30.34,-88.81 -25.82,-138.68c4.53,-47.12 18.57,-88.6 42.14,-124.39c23.57,-35.79 55.98,-63.68 97.2,-83.63c41.25,-19.92 90.42,-29.89 147.51,-29.89l0.01,0.01zm270.56,13.59l-2.73,28.55l-160.43,0l0,-28.55l163.15,0l0.01,0zm1139.32,5.42l1.38,951.7l-203.95,0l0,-951.7l202.57,0zm-644.42,0l1.35,951.7l-203.92,0l0,-951.7l202.57,0zm454.08,450.03l0,57.09l-467.68,-1.35l1.35,-57.12l466.33,1.38zm-652.57,402.41l0,99.26l-108.79,0l0,-13.6c0,0 2.97,0 8.83,0c5.91,0 8.87,0 8.87,0c23.54,0 43.73,-8.39 60.47,-25.16c16.77,-16.74 25.61,-36.93 26.54,-60.5l4.07,0l0.01,0zm0,-753.18l-4.07,0c-0.93,-23.57 -9.77,-43.73 -26.54,-60.5c-16.74,-16.77 -36.93,-25.16 -60.47,-25.16c0,0 -2.97,0 -8.87,0c-5.86,0 -8.83,0 -8.83,0l0,-13.6l108.79,0l0,99.26l-0.01,0zm195.77,753.18l2.73,0c0.9,23.57 9.73,43.76 26.51,60.5c16.77,16.77 36.93,25.16 60.5,25.16c0,0 2.73,0 8.15,0c5.45,0 8.62,0 9.53,0l0,13.6l-108.76,0l1.35,-99.26l-0.01,0zm0,-753.18l-1.35,-99.26l108.76,0l0,13.6c-0.91,0 -4.07,0 -9.53,0c-5.42,0 -8.15,0 -8.15,0c-23.57,0 -43.73,8.39 -60.5,25.16c-16.78,16.77 -25.61,36.93 -26.51,60.5l-2.73,0l0.01,0zm448.65,753.18l0,99.26l-108.76,0l0,-13.6c0.9,0 4.07,0 9.5,0c5.45,0 8.18,0 8.18,0c23.57,0 43.93,-8.39 61.15,-25.16c17.22,-16.74 25.85,-36.93 25.85,-60.5l4.07,0l0.01,0zm0,-753.18l-4.07,0c0,-23.57 -8.63,-43.73 -25.85,-60.5c-17.22,-16.77 -37.58,-25.16 -61.15,-25.16c0,0 -2.73,0 -8.18,0c-5.42,0 -8.6,0 -9.5,0l0,-13.6l108.76,0l0,99.26l-0.01,0zm195.77,753.18l2.73,0c0.9,23.57 9.73,43.76 26.51,60.5c16.77,16.77 36.93,25.16 60.5,25.16c0,0 2.94,0 8.83,0c5.91,0 8.84,0 8.84,0l0,13.6l-108.76,0l1.35,-99.26zm0,-753.18l-1.35,-99.26l108.76,0l0,13.6c0,0 -2.94,0 -8.84,0c-5.9,0 -8.83,0 -8.83,0c-23.57,0 -43.73,8.39 -60.5,25.16c-16.78,16.77 -25.61,36.93 -26.51,60.5l-2.73,0zm709.71,-97.88l266.46,496.22l-58.47,47.59l-324.92,-543.81l116.93,0zm285.51,512.54l0,437.78l-88.4,0l0,-437.78l88.4,0zm241.98,-512.54l82.93,0l-334.44,541.08l-48.94,-14.95l300.45,-526.14l0,0.01zm-55.74,96.51c8.18,-12.67 10.42,-25.57 6.8,-38.73c-3.63,-13.15 -10.42,-24.01 -20.4,-32.64c-9.94,-8.59 -21.3,-12.91 -33.96,-12.91c0,0 -2.73,0 -8.18,0c-5.42,0 -8.15,0 -8.15,0l0,-13.6l301.83,0l0,13.6l-19.05,0c-28.09,0 -54.35,8.18 -78.83,24.47c-24.47,16.33 -43.97,34.9 -58.47,55.74l-81.59,4.07zm-420.08,0l-114.2,-4.07c-12.71,-20.84 -31.28,-39.41 -55.74,-55.74c-24.48,-16.29 -51.22,-24.47 -80.22,-24.47l-19.04,0l0,-13.6l334.44,0l0,13.6c0,0 -2.94,0 -8.83,0c-5.88,0 -8.84,0 -8.84,0c-19.94,0 -35.1,9.29 -45.52,27.89c-10.42,18.57 -11.12,37.38 -2.04,56.4l-0.01,-0.01zm148.17,754.56l0,99.26l-107.4,0l0,-13.6c0,0 2.73,0 8.17,0c5.42,0 8.6,0 9.5,0c23.57,0 43.73,-8.39 60.5,-25.16c16.78,-16.74 25.61,-36.93 26.51,-60.5l2.73,0l-0.01,0zm81.6,0l4.07,0c0,23.57 8.59,43.76 25.81,60.5c17.22,16.77 37.62,25.16 61.19,25.16c0,0 2.73,0 8.15,0c5.45,0 8.15,0 8.15,0l0,13.6l-107.38,0l0,-99.26l0.01,0zm1241.25,-871.45l402.43,962.57l-115.55,0l-314.05,-833.42l27.17,-129.15zm-292.3,871.45c-6.36,18.15 -7.25,33.55 -2.7,46.25c4.52,12.67 11.98,22.43 22.4,29.23c10.42,6.8 21.09,10.18 31.95,10.18l12.25,0l0,13.6l-273.28,0l0,-13.6c0,0 2.03,0 6.11,0c4.1,0 6.15,0 6.15,0c20.84,0 42.34,-6.56 64.57,-19.71c22.19,-13.15 40.55,-35.13 55.05,-65.95l77.49,0l0.01,0zm292.3,-871.45l12.24,95.16l-341.24,871.48l-81.59,0l348.04,-826.62c0,0 2.51,-5.66 7.48,-16.98c4.97,-11.36 10.87,-25.16 17.68,-41.49c6.8,-16.3 12.7,-32.17 17.68,-47.56c5,-15.43 7.48,-26.75 7.48,-33.99l12.22,0l0.01,0zm191.72,599.54l0,40.8l-425.57,0l0,-40.8l425.57,0zm61.15,271.91l111.48,0c13.6,30.82 31.72,52.8 54.39,65.95c22.64,13.15 44.42,19.71 65.27,19.71c0,0 1.79,0 5.42,0c3.62,0 5.45,0 5.45,0l0,13.6l-305.9,0l0,-13.6l12.22,0c17.22,0 32.64,-7.48 46.25,-22.43c13.56,-14.95 15.39,-36.03 5.41,-63.23l0.01,0zm568.29,-871.45c14.5,0 30.13,0.9 46.91,2.72c16.77,1.8 33.1,4.29 48.94,7.46c15.87,3.17 30.37,6.35 43.52,9.53c13.12,3.17 23.33,6.56 30.58,10.18l0,150.93l-12.25,0c0,-43.52 -14.95,-77.72 -44.84,-102.65c-29.93,-24.92 -66.16,-37.37 -108.79,-37.37c-49.84,0 -90.19,15.63 -120.98,46.9c-30.81,31.28 -46.25,67.75 -46.25,109.45c0,17.19 3.86,37.37 11.57,60.47c7.7,23.12 21.98,44.66 42.83,64.57l267.84,247.46c27.19,25.37 45.31,52.56 54.39,81.56c9.04,28.99 13.56,57.12 13.56,84.29c0,75.24 -22.88,136.43 -68.65,183.54c-45.76,47.14 -107.61,70.68 -185.58,70.68c-21.75,0 -47.36,-2.24 -76.8,-6.76c-29.48,-4.56 -58.03,-12.49 -85.67,-23.81c-27.64,-11.33 -50.52,-26.07 -68.65,-44.18c-2.73,-14.5 -4.07,-32.61 -4.07,-54.39c0,-21.74 1.8,-44.63 5.42,-68.65c3.62,-24.02 8.63,-46 14.98,-65.92l12.22,0c-4.53,46.22 1.35,86.56 17.67,120.97c16.33,34.45 40.11,60.51 71.38,78.18c31.28,17.68 66.86,25.61 106.73,23.81c49.87,-2.73 92.7,-20.18 128.5,-52.35c35.79,-32.17 53.7,-75.45 53.7,-129.84c0,-26.27 -4.56,-50.08 -13.6,-71.38c-9.07,-21.3 -22.22,-39.66 -39.41,-55.05l-261.07,-242.02c-27.16,-25.36 -46.22,-53.22 -57.09,-83.59c-10.86,-30.37 -16.32,-58.71 -16.32,-84.98c0,-38.07 9.07,-74.8 27.19,-110.14c18.13,-35.34 45.11,-64.12 80.9,-86.32c35.79,-22.19 79.52,-33.3 131.19,-33.3zm169.95,13.59l0,28.55l-103.34,0l0,-28.55l103.34,0zm717.86,-13.59c96.99,0 182.17,20.6 255.58,61.85c73.41,41.25 130.74,99.02 171.98,173.33c41.25,74.34 61.88,160.9 61.88,259.69c0,98.81 -20.63,185.33 -61.88,259.68c-41.25,74.31 -98.58,132.09 -171.98,173.33c-73.42,41.25 -158.6,61.85 -255.58,61.85c-96.08,0 -180.82,-20.6 -254.24,-61.85c-73.41,-41.25 -130.74,-99.02 -171.98,-173.33c-41.25,-74.34 -61.88,-160.87 -61.88,-259.68c0,-98.79 20.63,-185.34 61.88,-259.69c41.25,-74.31 98.58,-132.09 171.98,-173.33c73.42,-41.25 158.15,-61.85 254.24,-61.85zm0,948.97c77.04,0 144.34,-19.04 201.87,-57.12c57.57,-38.07 102.44,-91.08 134.61,-159.04c32.16,-68 48.25,-147.31 48.25,-237.94c0,-90.64 -16.09,-169.95 -48.25,-237.92c-32.17,-67.99 -77.04,-121 -134.61,-159.07c-57.53,-38.08 -124.83,-57.09 -201.87,-57.09c-76.13,0 -142.99,19.01 -200.52,57.09c-57.57,38.07 -102.44,91.08 -134.61,159.07c-32.16,67.97 -48.28,147.28 -48.28,237.92c0,90.63 16.12,169.94 48.28,237.94c32.17,67.95 77.04,120.97 134.61,159.04c57.53,38.08 124.39,57.12 200.52,57.12zm1521.36,-375.24l-16.33,213.44c-23.57,38.96 -53.25,73.65 -89.04,104.02c-35.79,30.34 -77.96,54.36 -126.46,72.04c-48.49,17.67 -103.99,26.5 -166.53,26.5c-94.26,-0.9 -178.09,-21.74 -251.51,-62.53c-73.41,-40.76 -130.74,-98.09 -171.98,-171.95c-41.25,-73.89 -61.88,-161.12 -61.88,-261.72c0,-98.82 20.4,-185.14 61.19,-259c40.79,-73.86 98.12,-131.42 171.98,-172.67c73.86,-41.25 160.66,-61.85 260.34,-61.85c67.09,0 127.6,8.83 181.51,26.5c53.94,17.68 100.85,39.67 140.72,65.93l27.19,191.72l-12.25,0c-19.92,-79.77 -60.71,-140.27 -122.35,-181.51c-61.65,-41.25 -133.23,-61.85 -214.82,-61.85c-79.77,0 -148.86,18.78 -207.33,56.4c-58.47,37.62 -103.79,90.19 -135.95,157.73c-32.17,67.51 -48.26,146.58 -48.26,237.22c0,90.63 16.09,169.94 48.26,237.94c32.16,67.95 77.03,121 134.6,159.08c57.53,38.04 124.39,57.99 200.52,59.81c64.37,0 123.95,-12.01 178.79,-36.02c54.85,-24.02 100.82,-63.45 137.99,-118.28c37.17,-54.85 60.74,-128.5 70.68,-220.93l10.9,0l0.02,-0.02zm342.59,-554.72l0,951.7l-88.36,0l0,-951.7l88.36,0zm-84.28,852.44l0,99.26l-108.79,0l0,-13.6c0,0 2.97,0 8.86,0c5.88,0 8.84,0 8.84,0c23.54,0 43.73,-8.39 60.47,-25.16c16.77,-16.74 25.61,-36.93 26.54,-60.5l4.07,0l0.01,0zm0,-753.18l-4.07,0c-0.93,-23.57 -9.77,-43.73 -26.54,-60.5c-16.74,-16.77 -36.93,-25.16 -60.47,-25.16c0,0 -2.97,0 -8.84,0c-5.9,0 -8.86,0 -8.86,0l0,-13.6l108.79,0l0,99.26l-0.01,0zm80.21,753.18l4.07,0c0.91,23.57 9.74,43.76 26.51,60.5c16.78,16.77 36.93,25.16 60.5,25.16c0,0 2.73,0 8.15,0c5.45,0 8.63,0 9.53,0l0,13.6l-108.76,0l0,-99.26zm0,-753.18l0,-99.26l108.76,0l0,13.6c-0.9,0 -4.07,0 -9.53,0c-5.42,0 -8.15,0 -8.15,0c-23.57,0 -43.72,8.39 -60.5,25.16c-16.77,16.77 -25.6,36.93 -26.51,60.5l-4.07,0zm677.04,-118.27l402.43,962.57l-115.55,0l-314.05,-833.42l27.17,-129.15zm-292.3,871.45c-6.36,18.15 -7.25,33.55 -2.7,46.25c4.52,12.67 11.97,22.43 22.4,29.23c10.42,6.8 21.09,10.18 31.95,10.18l12.25,0l0,13.6l-273.28,0l0,-13.6c0,0 2.03,0 6.11,0c4.1,0 6.14,0 6.14,0c20.85,0 42.35,-6.56 64.58,-19.71c22.19,-13.15 40.55,-35.13 55.05,-65.95l77.49,0l0.01,0zm292.3,-871.45l12.24,95.16l-341.24,871.48l-81.59,0l348.04,-826.62c0,0 2.51,-5.66 7.48,-16.98c4.97,-11.36 10.87,-25.16 17.68,-41.49c6.8,-16.3 12.7,-32.17 17.67,-47.56c5.01,-15.43 7.49,-26.75 7.49,-33.99l12.22,0l0.01,0zm191.72,599.54l0,40.8l-425.57,0l0,-40.8l425.57,0zm61.15,271.91l111.48,0c13.6,30.82 31.72,52.8 54.39,65.95c22.64,13.15 44.42,19.71 65.27,19.71c0,0 1.79,0 5.42,0c3.62,0 5.45,0 5.45,0l0,13.6l-305.9,0l0,-13.6l12.22,0c17.22,0 32.64,-7.48 46.25,-22.43c13.56,-14.95 15.39,-36.03 5.41,-63.23l0.01,0zm769.51,-852.44c96.99,0 181.95,19.71 254.92,59.15c72.96,39.42 130.06,94.96 171.3,166.54c41.25,71.61 61.85,154.99 61.85,250.16c0,95.19 -20.6,178.33 -61.85,249.47c-41.25,71.16 -98.34,126.66 -171.3,166.56c-72.96,39.87 -157.93,59.82 -254.92,59.82l-290.95,0l-1.35,-40.79c0,0 9.73,0 29.23,0c19.47,0 43.94,0 73.41,0c29.45,0 58.68,0 87.7,0c28.99,0 53.23,0 72.72,0c19.5,0 29.23,0 29.23,0c77.93,0 145.69,-18.13 203.25,-54.36c57.57,-36.28 102.41,-87.01 134.61,-152.28c32.16,-65.27 48.25,-141.4 48.25,-228.41c0,-87.02 -16.09,-163.15 -48.25,-228.42c-32.2,-65.24 -77.28,-116 -135.3,-152.25c-57.99,-36.27 -125.53,-54.39 -202.57,-54.39c0,0 -10.18,0 -30.58,0c-20.4,0 -45.76,0 -76.13,0c-30.38,0 -60.75,0 -91.09,0c-30.37,0 -55.97,0 -76.83,0c-20.84,0 -31.27,0 -31.27,0l0,-40.79l305.9,0l0.02,-0.01zm-267.84,0l0,951.7l-88.36,0l0,-951.7l88.36,0zm-84.28,852.44l0,99.26l-108.79,0l0,-13.6c0,0 2.97,0 8.87,0c5.86,0 8.83,0 8.83,0c23.54,0 43.73,-8.39 60.47,-25.16c16.77,-16.74 25.61,-36.93 26.54,-60.5l4.07,0l0.01,0zm0,-753.18l-4.07,0c0,-23.57 -8.62,-43.73 -25.84,-60.5c-17.22,-16.77 -37.62,-25.16 -61.16,-25.16c0,0 -2.73,0 -8.18,0c-5.42,0 -8.15,0 -8.15,0l-1.38,-13.6l108.79,0l0,99.26l-0.01,0zm1490.09,-118.27c96.99,0 182.17,20.6 255.58,61.85c73.41,41.25 130.74,99.02 171.98,173.33c41.24,74.34 61.88,160.9 61.88,259.69c0,98.81 -20.64,185.33 -61.88,259.68c-41.25,74.31 -98.58,132.09 -171.98,173.33c-73.42,41.25 -158.6,61.85 -255.58,61.85c-96.09,0 -180.83,-20.6 -254.24,-61.85c-73.42,-41.25 -130.74,-99.02 -171.98,-173.33c-41.25,-74.34 -61.88,-160.87 -61.88,-259.68c0,-98.79 20.63,-185.34 61.88,-259.69c41.25,-74.31 98.57,-132.09 171.98,-173.33c73.41,-41.25 158.14,-61.85 254.24,-61.85zm0,948.97c77.04,0 144.34,-19.04 201.87,-57.12c57.57,-38.07 102.44,-91.08 134.61,-159.04c32.16,-68 48.25,-147.31 48.25,-237.94c0,-90.64 -16.09,-169.95 -48.25,-237.92c-32.17,-67.99 -77.04,-121 -134.61,-159.07c-57.53,-38.08 -124.83,-57.09 -201.87,-57.09c-76.14,0 -142.99,19.01 -200.54,57.09c-57.56,38.07 -102.43,91.08 -134.6,159.07c-32.17,67.97 -48.28,147.28 -48.28,237.92c0,90.63 16.11,169.94 48.28,237.94c32.17,67.95 77.04,120.97 134.6,159.04c57.54,38.08 124.39,57.12 200.54,57.12zm897.31,-948.97c14.5,0 30.13,0.9 46.9,2.72c16.78,1.8 33.1,4.29 48.94,7.46c15.87,3.17 30.37,6.35 43.52,9.53c13.12,3.17 23.34,6.56 30.58,10.18l0,150.93l-12.25,0c0,-43.52 -14.94,-77.72 -44.84,-102.65c-29.92,-24.92 -66.16,-37.37 -108.78,-37.37c-49.85,0 -90.19,15.63 -120.98,46.9c-30.82,31.28 -46.25,67.75 -46.25,109.45c0,17.19 3.86,37.37 11.56,60.47c7.7,23.12 21.99,44.66 42.84,64.57l267.83,247.46c27.2,25.37 45.32,52.56 54.39,81.56c9.04,28.99 13.57,57.12 13.57,84.29c0,75.24 -22.89,136.43 -68.65,183.54c-45.76,47.14 -107.62,70.68 -185.59,70.68c-21.74,0 -47.35,-2.24 -76.8,-6.76c-29.47,-4.56 -58.02,-12.49 -85.66,-23.81c-27.64,-11.33 -50.53,-26.07 -68.65,-44.18c-2.73,-14.5 -4.07,-32.61 -4.07,-54.39c0,-21.74 1.8,-44.63 5.42,-68.65c3.62,-24.02 8.62,-46 14.98,-65.92l12.21,0c-4.52,46.22 1.35,86.56 17.68,120.97c16.33,34.45 40.11,60.51 71.38,78.18c31.27,17.68 66.85,25.61 106.72,23.81c49.88,-2.73 92.7,-20.18 128.5,-52.35c35.79,-32.17 53.71,-75.45 53.71,-129.84c0,-26.27 -4.56,-50.08 -13.6,-71.38c-9.07,-21.3 -22.22,-39.66 -39.41,-55.05l-261.07,-242.02c-27.16,-25.36 -46.22,-53.22 -57.09,-83.59c-10.87,-30.37 -16.33,-58.71 -16.33,-84.98c0,-38.07 9.08,-74.8 27.2,-110.14c18.12,-35.34 45.11,-64.12 80.9,-86.32c35.79,-22.19 79.52,-33.3 131.19,-33.3zm169.94,13.59l0,28.55l-103.34,0l0,-28.55l103.34,0z" class="fil0"/>
  </g>
 </g>
</svg>